# xmcd
#
# Track frame offsets: 
#        150
#        14635
#        33062
#        49321
#        67563
#        81555
#        94536
#        117210
#        143424
#
# Disc length: 2190 seconds
#
# Revision: 1
# Processed by: cddbd v1.5.2PL0 Copyright (c) Steve Scherf et al.
# Submitted via: ExactAudioCopyFreeDBPlugin 1.0
#
DISCID=68088c09
DTITLE=Delta Danny - The Blues And More  CD 1
DYEAR=2016
DGENRE=Blues
TTITLE0=Sweet Home Chicago
TTITLE1=Blueberry Hill
TTITLE2=Stack O'Lee
TTITLE3=I'm Ready
TTITLE4=I Can't Live Without It
TTITLE5=Always On My Mind
TTITLE6=Don't Go Blues
TTITLE7=Do You Remember
TTITLE8=The Ol' Beggars Bush
EXTD=YEAR: 2016
EXTT0=
EXTT1=
EXTT2=
EXTT3=
EXTT4=
EXTT5=
EXTT6=
EXTT7=
EXTT8=
PLAYORDER=
